<svg viewBox="0 0 512 512" xmlns="http://www.w3.org/2000/svg">
  <rect width="512" height="512" fill="#211331"/>
  <circle cx="256" cy="256" r="154" fill="#3d245a"/>
  <circle cx="256" cy="256" r="116" fill="#6f3fa0"/>
  <path
    fill="none"
    stroke="#f4d06f"
    stroke-width="18"
    stroke-linecap="round"
    d="M154 144a154 154 0 0 0 8 232m196-8a154 154 0 0 0 0-224"
  />
  <path
    fill="#f4d06f"
    d="M256 70l16 49 52 1-42 30 15 50-41-30-41 30 15-50-42-30 52-1 16-49Z"
  />
  <path fill="#9af0d0" d="M80 260l43-18 18-43 18 43 43 18-43 18-18 43-18-43-43-18Z"/>
  <path fill="#9af0d0" d="M394 313l30-12 12-30 12 30 30 12-30 12-12 30-12-30-30-12Z"/>
  <rect x="132" y="207" width="248" height="108" rx="54" fill="#f8f4ff"/>
  <path fill="#f8f4ff" d="M180 298l-32 75 84-75Z"/>
  <circle cx="216" cy="261" r="15" fill="#6f3fa0"/>
  <circle cx="268" cy="261" r="15" fill="#6f3fa0"/>
  <circle cx="320" cy="261" r="15" fill="#6f3fa0"/>
</svg>
